<svg width="156" height="36" viewBox="0 0 156 36" fill="none" xmlns="http://www.w3.org/2000/svg">
<rect width="156" height="36" rx="8" fill="#E8F8F3"/>
<path d="M24.68 22L20.914 12.2H19.906L16.14 22H17.176L18.086 19.592H22.734L23.644 22H24.68ZM20.41 13.418L22.384 18.668H18.436L20.41 13.418ZM25.9384 12.2V22H26.9184V18.36H29.4384C30.3204 18.36 31.0484 18.066 31.6364 17.478C32.2244 16.89 32.5184 16.162 32.5184 15.28C32.5184 14.398 32.2244 13.67 31.6364 13.082C31.0484 12.494 30.3204 12.2 29.4384 12.2H25.9384ZM26.9184 17.436V13.124H29.4384C30.0404 13.124 30.5444 13.334 30.9364 13.74C31.3424 14.146 31.5384 14.65 31.5384 15.28C31.5384 15.91 31.3424 16.428 30.9364 16.834C30.5444 17.24 30.0404 17.436 29.4384 17.436H26.9184ZM34.1962 22H35.1762V12.2H34.1962V22ZM40.9227 12.2V22H44.7027C46.0327 22 47.1387 21.524 48.0067 20.586C48.8887 19.634 49.3227 18.472 49.3227 17.1C49.3227 15.728 48.8887 14.566 48.0067 13.628C47.1387 12.676 46.0327 12.2 44.7027 12.2H40.9227ZM41.9027 21.076V13.124H44.7027C45.7807 13.124 46.6487 13.502 47.3347 14.272C48.0207 15.042 48.3707 15.98 48.3707 17.1C48.3707 18.22 48.0207 19.158 47.3347 19.928C46.6487 20.698 45.7807 21.076 44.7027 21.076H41.9027ZM56.7249 21.118C57.4389 20.404 57.8029 19.536 57.8029 18.5C57.8029 17.464 57.4389 16.596 56.7249 15.896C56.0109 15.182 55.1429 14.832 54.1209 14.832C53.0989 14.832 52.2169 15.182 51.5029 15.896C50.7889 16.596 50.4389 17.464 50.4389 18.5C50.4389 19.536 50.7889 20.404 51.5029 21.118C52.2169 21.818 53.0989 22.168 54.1209 22.168C55.1429 22.168 56.0109 21.818 56.7249 21.118ZM52.1609 20.474C51.6289 19.928 51.3629 19.27 51.3629 18.5C51.3629 17.73 51.6289 17.072 52.1609 16.54C52.6929 15.994 53.3509 15.728 54.1209 15.728C54.8909 15.728 55.5489 15.994 56.0809 16.54C56.6129 17.072 56.8789 17.73 56.8789 18.5C56.8789 19.27 56.6129 19.928 56.0809 20.474C55.5489 21.006 54.8909 21.272 54.1209 21.272C53.3509 21.272 52.6929 21.006 52.1609 20.474ZM62.6111 22.168C63.9691 22.168 65.1731 21.468 65.7471 20.348L64.9771 19.9C64.5151 20.74 63.6611 21.272 62.6111 21.272C61.8411 21.272 61.1831 21.006 60.6511 20.474C60.1191 19.928 59.8531 19.27 59.8531 18.5C59.8531 17.73 60.1191 17.072 60.6511 16.54C61.1831 15.994 61.8411 15.728 62.6111 15.728C63.6611 15.728 64.5431 16.26 64.9211 17.1L65.6771 16.666C65.1731 15.546 63.9971 14.832 62.6111 14.832C61.5611 14.832 60.6791 15.182 59.9791 15.896C59.2791 16.596 58.9291 17.464 58.9291 18.5C58.9291 19.536 59.2791 20.404 59.9791 21.118C60.6791 21.818 61.5611 22.168 62.6111 22.168ZM72.0018 18.668C72.0018 20.446 71.0778 21.272 69.7338 21.272C68.5158 21.272 67.8298 20.544 67.8298 19.298V15H66.9058V19.298C66.9058 21.048 67.9558 22.168 69.6498 22.168C70.6998 22.168 71.4838 21.748 72.0018 20.908V22H72.9258V15H72.0018V18.668ZM82.3424 14.832C81.3344 14.832 80.5784 15.252 80.0744 16.106C79.6684 15.252 78.9544 14.832 77.9464 14.832C77.0224 14.832 76.3084 15.224 75.8044 16.022V15H74.8804V22H75.8044V18.122C75.8044 16.498 76.7004 15.728 77.8204 15.728C78.8284 15.728 79.4584 16.4 79.4584 17.632V22H80.3824V18.122C80.3824 16.484 81.1664 15.728 82.3284 15.728C83.3504 15.728 84.0364 16.414 84.0364 17.632V22H84.9604V17.632C84.9604 15.91 83.9104 14.832 82.3424 14.832ZM89.9816 14.832C88.9036 14.832 88.0356 15.182 87.3496 15.882C86.6636 16.582 86.3276 17.45 86.3276 18.5C86.3276 19.564 86.6776 20.446 87.3636 21.132C88.0496 21.818 88.9456 22.168 90.0516 22.168C91.4096 22.168 92.5156 21.552 93.1316 20.558L92.3196 20.082C91.9276 20.796 91.1296 21.272 90.0656 21.272C88.5676 21.272 87.4616 20.376 87.2796 18.962H93.4256C93.4396 18.78 93.4536 18.626 93.4536 18.528C93.4536 17.534 93.1316 16.666 92.4876 15.938C91.8576 15.196 91.0176 14.832 89.9816 14.832ZM89.9816 15.728C90.6116 15.728 91.1716 15.938 91.6476 16.344C92.1236 16.75 92.4036 17.324 92.5016 18.066H87.2796C87.4616 16.68 88.5256 15.728 89.9816 15.728ZM98.1994 14.832C97.1494 14.832 96.3654 15.252 95.8474 16.092V15H94.9234V22H95.8474V18.332C95.8474 16.554 96.7714 15.728 98.1154 15.728C99.3334 15.728 100.019 16.456 100.019 17.702V22H100.943V17.702C100.943 15.952 99.8934 14.832 98.1994 14.832ZM106.44 15H104.424V13.04L103.5 13.32V15H102.03V15.896H103.5V20.138C103.5 21.762 104.48 22.294 106.44 22V21.188C105.096 21.244 104.424 21.342 104.424 20.138V15.896H106.44V15ZM113.576 16.372C112.932 15.35 111.994 14.832 110.748 14.832C109.754 14.832 108.9 15.182 108.186 15.896C107.486 16.61 107.136 17.478 107.136 18.5C107.136 19.522 107.486 20.39 108.186 21.104C108.9 21.818 109.754 22.168 110.748 22.168C111.994 22.168 112.932 21.65 113.576 20.628V22H114.5V15H113.576V16.372ZM108.858 20.474C108.326 19.928 108.06 19.27 108.06 18.5C108.06 17.73 108.326 17.072 108.858 16.54C109.39 15.994 110.048 15.728 110.818 15.728C111.588 15.728 112.246 15.994 112.778 16.54C113.31 17.072 113.576 17.73 113.576 18.5C113.576 19.27 113.31 19.928 112.778 20.474C112.246 21.006 111.588 21.272 110.818 21.272C110.048 21.272 109.39 21.006 108.858 20.474ZM120.167 15H118.151V13.04L117.227 13.32V15H115.757V15.896H117.227V20.138C117.227 21.762 118.207 22.294 120.167 22V21.188C118.823 21.244 118.151 21.342 118.151 20.138V15.896H120.167V15ZM122.645 13.32C122.911 13.054 122.911 12.634 122.645 12.368C122.379 12.102 121.959 12.102 121.693 12.368C121.427 12.634 121.427 13.054 121.693 13.32C121.959 13.586 122.379 13.586 122.645 13.32ZM122.631 22V15H121.707V22H122.631ZM130.457 21.118C131.171 20.404 131.535 19.536 131.535 18.5C131.535 17.464 131.171 16.596 130.457 15.896C129.743 15.182 128.875 14.832 127.853 14.832C126.831 14.832 125.949 15.182 125.235 15.896C124.521 16.596 124.171 17.464 124.171 18.5C124.171 19.536 124.521 20.404 125.235 21.118C125.949 21.818 126.831 22.168 127.853 22.168C128.875 22.168 129.743 21.818 130.457 21.118ZM125.893 20.474C125.361 19.928 125.095 19.27 125.095 18.5C125.095 17.73 125.361 17.072 125.893 16.54C126.425 15.994 127.083 15.728 127.853 15.728C128.623 15.728 129.281 15.994 129.813 16.54C130.345 17.072 130.611 17.73 130.611 18.5C130.611 19.27 130.345 19.928 129.813 20.474C129.281 21.006 128.623 21.272 127.853 21.272C127.083 21.272 126.425 21.006 125.893 20.474ZM136.358 14.832C135.308 14.832 134.524 15.252 134.006 16.092V15H133.082V22H134.006V18.332C134.006 16.554 134.93 15.728 136.274 15.728C137.492 15.728 138.178 16.456 138.178 17.702V22H139.102V17.702C139.102 15.952 138.052 14.832 136.358 14.832Z" fill="#1DBC86"/>
</svg>
