<svg width="41" height="35" viewBox="0 0 41 35" fill="none" xmlns="http://www.w3.org/2000/svg">
<rect y="1" width="34" height="34" rx="8" fill="white"/>
<g opacity="0.8">
<path d="M21.5 16.5C21.5 15.3065 21.0259 14.1619 20.182 13.318C19.3381 12.4741 18.1935 12 17 12C15.8065 12 14.6619 12.4741 13.818 13.318C12.9741 14.1619 12.5 15.3065 12.5 16.5V22.5H21.5V16.5ZM23 23.0002L23.3 23.4C23.3418 23.4557 23.3672 23.522 23.3735 23.5913C23.3797 23.6607 23.3666 23.7304 23.3354 23.7927C23.3043 23.855 23.2564 23.9074 23.1971 23.944C23.1379 23.9806 23.0696 24 23 24H11C10.9304 24 10.8621 23.9806 10.8029 23.944C10.7436 23.9074 10.6957 23.855 10.6646 23.7927C10.6334 23.7304 10.6203 23.6607 10.6265 23.5913C10.6328 23.522 10.6582 23.4557 10.7 23.4L11 23.0002V16.5C11 14.9087 11.6321 13.3826 12.7574 12.2574C13.8826 11.1321 15.4087 10.5 17 10.5C18.5913 10.5 20.1174 11.1321 21.2426 12.2574C22.3679 13.3826 23 14.9087 23 16.5V23.0002ZM15.125 24.75H18.875C18.875 25.2473 18.6775 25.7242 18.3258 26.0758C17.9742 26.4275 17.4973 26.625 17 26.625C16.5027 26.625 16.0258 26.4275 15.6742 26.0758C15.3225 25.7242 15.125 25.2473 15.125 24.75Z" fill="#101010"/>
</g>
<rect x="27" y="1" width="13" height="13" rx="6.5" fill="#FF295D" stroke="white" stroke-width="1.625"/>
</svg>
