<svg width="44" height="22" viewBox="0 0 44 22" fill="none" xmlns="http://www.w3.org/2000/svg">
<path d="M0 4C0 1.79086 1.79086 0 4 0H40C42.2091 0 44 1.79086 44 4V18C44 20.2091 42.2091 22 40 22H4C1.79086 22 0 20.2091 0 18V4Z" fill="#F2C876"/>
<path d="M15.152 7.952C15.26 7.292 15.104 6.74 14.684 6.284C14.276 5.828 13.724 5.6 13.04 5.6H9.848L8.372 14H11.972C12.74 14 13.388 13.784 13.904 13.34C14.432 12.896 14.744 12.344 14.84 11.684C14.972 10.784 14.624 10.064 13.952 9.668C14.636 9.272 15.032 8.708 15.152 7.952ZM14.048 7.928C13.916 8.648 13.268 9.212 12.56 9.212H10.328L10.784 6.644H12.968C13.724 6.644 14.18 7.22 14.048 7.928ZM12.644 10.232C13.4 10.232 13.88 10.82 13.748 11.588C13.616 12.356 12.92 12.956 12.116 12.956H9.668L10.148 10.232H12.644ZM22.1868 5.6H17.2308L15.7548 14H20.7708L20.9508 12.944H17.0508L17.5188 10.28H21.0588L21.2508 9.236H17.7108L18.1668 6.656H22.0068L22.1868 5.6ZM22.9101 5.6L22.7301 6.656H25.2021L23.9061 14H25.0101L26.3061 6.656H28.7901L28.9701 5.6H22.9101ZM34.7092 14L33.0532 5.6H31.7932L27.1732 14H28.3852L29.4172 12.116H33.1972L33.5332 14H34.7092ZM32.2492 6.908L33.0052 11.072H29.9812L32.2492 6.908Z" fill="#101010"/>
</svg>
