<svg width="91" height="36" viewBox="0 0 91 36" fill="none" xmlns="http://www.w3.org/2000/svg">
<rect width="91" height="36" rx="5" fill="#222222"/>
<path d="M17.5 11.25V12.75H13.75V23.25H24.25V19.5H25.75V24C25.75 24.1989 25.671 24.3897 25.5303 24.5303C25.3897 24.671 25.1989 24.75 25 24.75H13C12.8011 24.75 12.6103 24.671 12.4697 24.5303C12.329 24.3897 12.25 24.1989 12.25 24V12C12.25 11.8011 12.329 11.6103 12.4697 11.4697C12.6103 11.329 12.8011 11.25 13 11.25H17.5ZM23.1895 12.75H19.75V11.25H25.75V17.25H24.25V13.8105L19 19.0605L17.9395 18L23.1895 12.75Z" fill="white"/>
<path d="M37.775 17.515H41.975V15.88H37.775V13.15H42.35V11.5H36.05V22H42.425V20.35H37.775V17.515ZM47.7991 18.16L50.4691 14.5H48.5791L46.8541 16.87L45.1291 14.5H43.2541L45.9241 18.145L43.1041 22H44.9941L46.8691 19.435L48.7291 22H50.6041L47.7991 18.16ZM55.9371 14.305C54.7971 14.305 53.9271 14.725 53.3121 15.58V14.5H51.6921V25H53.3121V20.935C53.9271 21.775 54.7971 22.195 55.9371 22.195C56.9721 22.195 57.8421 21.82 58.5771 21.055C59.3121 20.29 59.6721 19.36 59.6721 18.25C59.6721 17.155 59.3121 16.225 58.5771 15.46C57.8421 14.695 56.9721 14.305 55.9371 14.305ZM53.9871 19.975C53.5371 19.51 53.3121 18.94 53.3121 18.25C53.3121 17.56 53.5371 16.99 53.9871 16.54C54.4371 16.075 55.0071 15.85 55.6821 15.85C56.3571 15.85 56.9271 16.075 57.3771 16.54C57.8271 16.99 58.0521 17.56 58.0521 18.25C58.0521 18.94 57.8271 19.51 57.3771 19.975C56.9271 20.425 56.3571 20.65 55.6821 20.65C55.0071 20.65 54.4371 20.425 53.9871 19.975ZM64.6803 22.195C65.7903 22.195 66.7203 21.82 67.4853 21.055C68.2503 20.29 68.6403 19.36 68.6403 18.25C68.6403 17.14 68.2503 16.21 67.4853 15.445C66.7203 14.68 65.7903 14.305 64.6803 14.305C63.5853 14.305 62.6403 14.68 61.8753 15.445C61.1103 16.21 60.7203 17.14 60.7203 18.25C60.7203 19.36 61.1103 20.29 61.8753 21.055C62.6403 21.82 63.5853 22.195 64.6803 22.195ZM63.0153 19.945C62.5653 19.495 62.3403 18.925 62.3403 18.25C62.3403 17.575 62.5653 17.005 63.0153 16.555C63.4653 16.105 64.0203 15.88 64.6803 15.88C65.3403 15.88 65.8953 16.105 66.3453 16.555C66.7953 17.005 67.0203 17.575 67.0203 18.25C67.0203 18.925 66.7953 19.495 66.3453 19.945C65.8953 20.395 65.3403 20.62 64.6803 20.62C64.0203 20.62 63.4653 20.395 63.0153 19.945ZM71.7252 14.5H70.1052V22H71.7252V18.22C71.7252 17.455 71.9502 16.9 72.4152 16.57C72.8802 16.225 73.4202 16.075 74.0352 16.12V14.365C72.9102 14.365 72.1302 14.83 71.7252 15.76V14.5ZM79.6075 14.5H77.7475V12.4L76.1275 12.88V14.5H74.7475V16.06H76.1275V19.66C76.1275 21.625 77.1325 22.3 79.6075 22V20.545C78.3775 20.605 77.7475 20.62 77.7475 19.66V16.06H79.6075V14.5Z" fill="white"/>
</svg>
