<svg width="24" height="24" viewBox="0 0 24 24" fill="none" xmlns="http://www.w3.org/2000/svg">
<path d="M12 20.881C12 22.6036 10.5806 24.0397 8.9159 23.5969C7.01705 23.0919 5.2552 22.1239 3.79779 20.7592C1.57418 18.677 0.225716 15.827 0.0258537 12.7873C-0.174008 9.74755 0.789697 6.74556 2.72153 4.39014C4.65337 2.03471 7.40872 0.502168 10.4288 0.103305C13.4489 -0.295558 16.5076 0.469117 18.9847 2.24225C21.4618 4.01539 23.1718 6.66426 23.768 9.65167C24.3641 12.6391 23.8018 15.7414 22.195 18.3295C21.1418 20.0258 19.6917 21.418 17.9891 22.3986C16.4964 23.2584 14.7528 22.24 14.3056 20.5765V20.5765C13.8584 18.9129 14.9539 17.2385 16.1492 15.9981C16.429 15.7077 16.6795 15.3867 16.8952 15.0392C17.6668 13.7965 17.9368 12.3069 17.6505 10.8724C17.3643 9.43798 16.5432 8.16609 15.3538 7.3147C14.1644 6.4633 12.6957 6.09613 11.2456 6.28765C9.79544 6.47917 8.47242 7.21504 7.54483 8.34603C6.61723 9.47701 6.1545 10.9185 6.25046 12.378C6.34643 13.8376 6.99391 15.206 8.06161 16.2058C8.36021 16.4855 8.68543 16.7304 9.03102 16.9382C10.5073 17.8257 12 19.1584 12 20.881V20.881Z" fill="#EA5D05"/>
<circle cx="12" cy="12" r="3" fill="#222222"/>
</svg>
