<svg width="252" height="40" viewBox="0 0 252 40" fill="none" xmlns="http://www.w3.org/2000/svg">
<rect width="252" height="40" rx="8" fill="#FBFBFB"/>
<g clip-path="url(#clip0_4640_49023)">
<path d="M13.5899 25H8.53027V23.333H13.5899V25ZM18.6496 20.833H8.53027V19.167H18.6496V20.832V20.833ZM23.7092 16.667H8.53027V15H23.7092V16.666V16.667Z" fill="#222222"/>
<path d="M45.4216 14.2H39.6816V24H41.2916V20.024H45.2816V18.484H41.2916V15.74H45.4216V14.2ZM48.0577 15.67C48.4497 15.278 48.4497 14.69 48.0717 14.312C47.6937 13.92 47.0777 13.92 46.6997 14.312C46.3217 14.69 46.3217 15.278 46.6997 15.67C47.0917 16.048 47.6797 16.048 48.0577 15.67ZM48.1417 24V17H46.6297V24H48.1417ZM51.2092 24V13.78H49.6972V24H51.2092ZM56.6708 17H54.9348V15.04L53.4228 15.488V17H52.1348V18.456H53.4228V21.816C53.4228 23.65 54.3608 24.28 56.6708 24V22.642C55.5228 22.698 54.9348 22.712 54.9348 21.816V18.456H56.6708V17ZM64.317 21.144C64.359 20.878 64.373 20.668 64.373 20.514C64.373 19.492 64.037 18.61 63.379 17.896C62.721 17.182 61.881 16.818 60.859 16.818C59.781 16.818 58.885 17.168 58.199 17.882C57.513 18.582 57.163 19.45 57.163 20.5C57.163 21.564 57.513 22.446 58.213 23.146C58.913 23.832 59.837 24.182 60.971 24.182C62.329 24.182 63.351 23.678 64.037 22.656L62.791 21.928C62.385 22.502 61.783 22.796 60.985 22.796C59.823 22.796 58.969 22.208 58.745 21.144H64.317ZM58.731 19.912C58.941 18.848 59.725 18.19 60.845 18.19C61.839 18.19 62.637 18.778 62.847 19.912H58.731ZM67.0155 17H65.5035V24H67.0155V20.472C67.0155 19.758 67.2255 19.24 67.6595 18.932C68.0935 18.61 68.5975 18.47 69.1715 18.512V16.874C68.1215 16.874 67.3935 17.308 67.0155 18.176V17ZM69.9486 17.868C69.8926 18.764 71.1386 19.282 71.7406 18.61C72.4126 18.008 71.8946 16.762 70.9986 16.818C70.3966 16.818 69.9486 17.266 69.9486 17.868ZM70.9986 22.068C70.3966 22.068 69.9486 22.544 69.9486 23.118C69.9486 23.692 70.4246 24.168 70.9986 24.168C71.5726 24.168 72.0486 23.692 72.0486 23.118C72.0486 22.544 71.5726 22.068 70.9986 22.068Z" fill="#666666"/>
<path d="M93.0853 23.5L89.3193 13.7H88.3113L84.5453 23.5H85.5813L86.4913 21.092H91.1393L92.0493 23.5H93.0853ZM88.8153 14.918L90.7893 20.168H86.8413L88.8153 14.918ZM99.0633 20.168C99.0633 21.946 98.1393 22.772 96.7953 22.772C95.5773 22.772 94.8913 22.044 94.8913 20.798V16.5H93.9673V20.798C93.9673 22.548 95.0173 23.668 96.7113 23.668C97.7613 23.668 98.5453 23.248 99.0633 22.408V23.5H99.9873V16.5H99.0633V20.168ZM107.962 17.872C107.318 16.85 106.38 16.332 105.134 16.332C104.14 16.332 103.286 16.682 102.572 17.396C101.872 18.11 101.522 18.978 101.522 20C101.522 21.022 101.872 21.89 102.572 22.604C103.286 23.318 104.14 23.668 105.134 23.668C106.38 23.668 107.318 23.15 107.962 22.128V23.22C107.962 24.662 106.982 25.572 105.372 25.572C104.126 25.572 103.286 25.152 102.866 24.298L102.054 24.76C102.628 25.894 103.734 26.468 105.372 26.468C106.338 26.468 107.164 26.174 107.85 25.6C108.536 25.026 108.886 24.228 108.886 23.22V16.5H107.962V17.872ZM103.244 21.974C102.712 21.428 102.446 20.77 102.446 20C102.446 19.23 102.712 18.572 103.244 18.04C103.776 17.494 104.434 17.228 105.204 17.228C105.974 17.228 106.632 17.494 107.164 18.04C107.696 18.572 107.962 19.23 107.962 20C107.962 20.77 107.696 21.428 107.164 21.974C106.632 22.506 105.974 22.772 105.204 22.772C104.434 22.772 103.776 22.506 103.244 21.974ZM113.572 14.596L113.824 15.436L116.022 14.778V23.5H117.002V13.7H116.162L113.572 14.596ZM124.91 23.5V22.548H120.08L122.88 19.762C124.042 18.6 124.7 17.606 124.7 16.472C124.7 15.562 124.406 14.848 123.804 14.33C123.216 13.798 122.53 13.532 121.746 13.532C120.458 13.532 119.338 14.162 118.722 15.38L119.548 15.87C120.01 14.946 120.738 14.484 121.746 14.484C122.824 14.484 123.72 15.226 123.72 16.472C123.72 17.186 123.216 18.054 122.208 19.062L118.68 22.618V23.5H124.91ZM131.636 19.622V18.726H126.596V19.622H131.636ZM144.929 23.5L141.163 13.7H140.155L136.389 23.5H137.425L138.335 21.092H142.983L143.893 23.5H144.929ZM140.659 14.918L142.633 20.168H138.685L140.659 14.918ZM150.907 20.168C150.907 21.946 149.983 22.772 148.639 22.772C147.421 22.772 146.735 22.044 146.735 20.798V16.5H145.811V20.798C145.811 22.548 146.861 23.668 148.555 23.668C149.605 23.668 150.389 23.248 150.907 22.408V23.5H151.831V16.5H150.907V20.168ZM159.806 17.872C159.162 16.85 158.224 16.332 156.978 16.332C155.984 16.332 155.13 16.682 154.416 17.396C153.716 18.11 153.366 18.978 153.366 20C153.366 21.022 153.716 21.89 154.416 22.604C155.13 23.318 155.984 23.668 156.978 23.668C158.224 23.668 159.162 23.15 159.806 22.128V23.22C159.806 24.662 158.826 25.572 157.216 25.572C155.97 25.572 155.13 25.152 154.71 24.298L153.898 24.76C154.472 25.894 155.578 26.468 157.216 26.468C158.182 26.468 159.008 26.174 159.694 25.6C160.38 25.026 160.73 24.228 160.73 23.22V16.5H159.806V17.872ZM155.088 21.974C154.556 21.428 154.29 20.77 154.29 20C154.29 19.23 154.556 18.572 155.088 18.04C155.62 17.494 156.278 17.228 157.048 17.228C157.818 17.228 158.476 17.494 159.008 18.04C159.54 18.572 159.806 19.23 159.806 20C159.806 20.77 159.54 21.428 159.008 21.974C158.476 22.506 157.818 22.772 157.048 22.772C156.278 22.772 155.62 22.506 155.088 21.974ZM165.416 14.596L165.668 15.436L167.866 14.778V23.5H168.846V13.7H168.006L165.416 14.596ZM175.452 18.446C176.32 17.956 176.754 17.214 176.754 16.248C176.754 15.366 176.46 14.694 175.872 14.232C175.298 13.77 174.598 13.532 173.8 13.532C173.002 13.532 172.302 13.77 171.714 14.232C171.14 14.694 170.846 15.366 170.846 16.248C170.846 17.214 171.28 17.956 172.148 18.446C171.154 18.908 170.524 19.776 170.524 20.84C170.524 21.722 170.832 22.422 171.462 22.926C172.092 23.416 172.862 23.668 173.8 23.668C174.738 23.668 175.508 23.416 176.138 22.926C176.768 22.422 177.076 21.722 177.076 20.84C177.076 19.776 176.446 18.908 175.452 18.446ZM171.826 16.248C171.826 15.058 172.68 14.484 173.8 14.484C174.92 14.484 175.774 15.058 175.774 16.248C175.774 17.368 174.878 18.012 173.8 18.012C172.722 18.012 171.826 17.368 171.826 16.248ZM172.134 22.24C171.714 21.918 171.504 21.442 171.504 20.84C171.504 20.238 171.714 19.776 172.134 19.454C172.554 19.132 173.114 18.964 173.8 18.964C174.486 18.964 175.046 19.132 175.466 19.454C175.886 19.776 176.096 20.238 176.096 20.84C176.096 21.442 175.886 21.918 175.466 22.24C175.046 22.562 174.486 22.716 173.8 22.716C173.114 22.716 172.554 22.562 172.134 22.24ZM187.924 23.5V22.548H183.094L185.894 19.762C187.056 18.6 187.714 17.606 187.714 16.472C187.714 15.562 187.42 14.848 186.818 14.33C186.23 13.798 185.544 13.532 184.76 13.532C183.472 13.532 182.352 14.162 181.736 15.38L182.562 15.87C183.024 14.946 183.752 14.484 184.76 14.484C185.838 14.484 186.734 15.226 186.734 16.472C186.734 17.186 186.23 18.054 185.222 19.062L181.694 22.618V23.5H187.924ZM195.493 22.296C196.151 21.372 196.473 20.14 196.473 18.6C196.473 17.06 196.151 15.828 195.493 14.918C194.849 13.994 193.939 13.532 192.763 13.532C191.587 13.532 190.677 13.994 190.019 14.918C189.375 15.828 189.053 17.06 189.053 18.6C189.053 20.14 189.375 21.372 190.019 22.296C190.677 23.206 191.587 23.668 192.763 23.668C193.939 23.668 194.849 23.206 195.493 22.296ZM190.747 21.638C190.271 20.924 190.033 19.902 190.033 18.6C190.033 17.298 190.271 16.276 190.747 15.562C191.237 14.848 191.909 14.484 192.763 14.484C193.617 14.484 194.289 14.848 194.765 15.562C195.255 16.276 195.493 17.298 195.493 18.6C195.493 19.902 195.255 20.924 194.765 21.638C194.289 22.352 193.617 22.716 192.763 22.716C191.909 22.716 191.237 22.352 190.747 21.638ZM203.824 23.5V22.548H198.994L201.794 19.762C202.956 18.6 203.614 17.606 203.614 16.472C203.614 15.562 203.32 14.848 202.718 14.33C202.13 13.798 201.444 13.532 200.66 13.532C199.372 13.532 198.252 14.162 197.636 15.38L198.462 15.87C198.924 14.946 199.652 14.484 200.66 14.484C201.738 14.484 202.634 15.226 202.634 16.472C202.634 17.186 202.13 18.054 201.122 19.062L197.594 22.618V23.5H203.824ZM211.393 22.296C212.051 21.372 212.373 20.14 212.373 18.6C212.373 17.06 212.051 15.828 211.393 14.918C210.749 13.994 209.839 13.532 208.663 13.532C207.487 13.532 206.577 13.994 205.919 14.918C205.275 15.828 204.953 17.06 204.953 18.6C204.953 20.14 205.275 21.372 205.919 22.296C206.577 23.206 207.487 23.668 208.663 23.668C209.839 23.668 210.749 23.206 211.393 22.296ZM206.647 21.638C206.171 20.924 205.933 19.902 205.933 18.6C205.933 17.298 206.171 16.276 206.647 15.562C207.137 14.848 207.809 14.484 208.663 14.484C209.517 14.484 210.189 14.848 210.665 15.562C211.155 16.276 211.393 17.298 211.393 18.6C211.393 19.902 211.155 20.924 210.665 21.638C210.189 22.352 209.517 22.716 208.663 22.716C207.809 22.716 207.137 22.352 206.647 21.638Z" fill="#222222"/>
<g opacity="0.8">
<path d="M237.238 22.2501L234.056 19.0678L235.117 18.0073L237.238 20.1291L239.359 18.0073L240.42 19.0678L237.238 22.2501Z" fill="#222222"/>
</g>
</g>
<defs>
<clipPath id="clip0_4640_49023">
<rect width="240" height="24" fill="white" transform="translate(6 8)"/>
</clipPath>
</defs>
</svg>
