<svg width="177" height="157" viewBox="0 0 177 157" fill="none" xmlns="http://www.w3.org/2000/svg">
<path d="M90.7076 134.61C125.357 134.61 153.447 106.496 153.447 71.8153C153.447 37.1346 125.357 9.021 90.7076 9.021C56.0582 9.021 27.9697 37.1346 27.9697 71.8153C27.9697 106.496 56.0582 134.61 90.7076 134.61Z" fill="#FBFBFB"/>
<path d="M141.078 16.7748C143.727 16.7748 145.874 14.625 145.874 11.9736C145.874 9.32087 143.727 7.17236 141.078 7.17236C138.428 7.17236 136.28 9.32087 136.28 11.9736C136.28 14.625 138.428 16.7748 141.078 16.7748Z" fill="#F2C876"/>
<path d="M33.5248 28.6501C35.2682 28.6501 36.6804 27.2353 36.6804 25.4907C36.6804 23.7473 35.2682 22.3325 33.5248 22.3325C31.7826 22.3325 30.3691 23.7473 30.3691 25.4907C30.3691 27.2353 31.7826 28.6501 33.5248 28.6501Z" fill="#F2C876"/>
<path d="M19.2583 36.7377C20.4435 36.7377 21.4043 35.7757 21.4043 34.5904C21.4043 33.4039 20.4435 32.4419 19.2583 32.4419C18.073 32.4419 17.1123 33.4039 17.1123 34.5904C17.1123 35.7757 18.073 36.7377 19.2583 36.7377Z" fill="#A5E4CF"/>
<path d="M121.131 11.0432C122.247 11.0432 123.151 10.1376 123.151 9.02133C123.151 7.90507 122.247 6.99951 121.131 6.99951C120.016 6.99951 119.111 7.90507 119.111 9.02133C119.111 10.1376 120.016 11.0432 121.131 11.0432Z" fill="#1DBC86"/>
<path d="M85.4065 134.532C85.4065 140.47 82.8817 145.777 78.8418 149.567C77.7068 150.578 76.5704 151.462 75.182 152.221C72.1518 153.989 68.6174 155 64.8308 155C61.0431 155 57.5086 153.989 54.4797 152.221C53.9742 151.967 53.5954 151.715 53.09 151.337C47.7883 147.672 44.2539 141.481 44.2539 134.532C44.2539 123.16 53.4688 114.063 64.7042 114.063C76.1917 113.937 85.4065 123.16 85.4065 134.532Z" fill="#D2F2E7"/>
<path d="M60.6629 139.079C60.9162 139.331 61.1683 139.711 61.5471 139.963C61.7992 140.215 62.0513 140.342 62.3047 140.595C62.4301 140.721 62.6834 140.847 62.8089 140.974C62.8089 140.974 62.9355 140.974 62.9355 141.101L63.0622 141.226V142.996C63.0622 142.996 63.0622 142.996 62.9355 142.869C62.8088 142.743 62.5568 142.616 62.4301 142.49C62.178 142.364 61.9259 142.112 61.6725 141.985C61.5471 141.985 61.5471 141.858 61.4204 141.858C60.5375 141.353 59.7799 140.847 59.7799 140.215C59.9053 139.963 60.1587 139.584 60.6629 139.079ZM78.5883 148.933C77.8308 147.292 76.4424 145.649 74.6752 144.764C73.7922 144.386 72.7813 144.007 71.7716 144.007C71.5195 144.007 71.1407 144.007 70.8886 144.007C70.7619 144.007 70.6353 144.007 70.5098 144.007C69.1214 143.88 68.9947 143.627 68.9947 143.627V140.721C69.879 139.963 70.762 139.079 71.5195 138.195C72.1504 137.31 72.6558 136.3 72.9079 135.035C74.0443 134.783 74.8018 133.772 74.6752 132.509C74.6752 132.004 74.2964 131.498 74.2964 130.993C74.2964 130.74 74.2964 130.487 74.2964 130.234C74.2964 130.109 74.2964 129.855 74.2964 129.729C74.2964 129.603 74.2964 129.35 74.2964 129.223C74.1709 128.339 73.9176 127.455 73.4134 126.444C71.8983 123.664 69.1214 121.896 65.8391 121.896C65.2082 121.896 64.5761 122.021 63.9452 122.148C62.8089 122.401 61.6725 122.907 60.7895 123.665C60.6629 123.791 60.4108 123.917 60.2841 124.17L60.1587 124.297C59.149 125.308 58.2648 126.444 57.886 127.834C57.3805 129.223 57.3805 130.613 57.5072 132.004C57.5072 132.004 57.5072 132.004 57.5072 132.129V132.256C57.5072 132.509 57.6339 132.509 57.5072 132.635C57.5072 132.761 57.3805 132.761 57.3805 132.888C57.1284 133.267 57.003 133.772 57.2551 134.53C57.7593 135.794 58.5169 135.667 59.4011 136.3C59.4011 136.3 59.2745 136.3 59.2745 136.425L58.3915 136.678C54.3516 137.941 52.9631 141.353 54.7304 143.501C55.3612 144.259 56.3709 144.891 57.886 145.27C57.5072 145.27 57.1284 145.522 56.8763 145.775C55.1091 147.165 53.9728 149.314 53.7207 151.334C53.7207 151.461 53.7207 151.587 53.7207 151.714C54.2249 151.966 54.6037 152.345 55.1091 152.598H75.1806C76.4423 151.84 77.7054 150.955 78.8404 149.944C78.715 149.313 78.715 149.06 78.5883 148.933Z" fill="white"/>
<path d="M78.8417 149.567C77.7066 150.577 76.5703 151.462 75.1819 152.22C72.1516 153.989 68.6172 155 64.8307 155C61.0429 155 57.5085 153.989 54.4795 152.22C53.9741 151.967 53.5953 151.715 53.0898 151.336C53.0898 151.21 53.0898 151.083 53.0898 150.956C53.3432 148.936 54.4795 146.787 56.2467 145.397C56.4988 145.145 56.8776 145.019 57.2564 144.892C55.7413 144.64 54.7316 144.008 54.1008 143.124H58.8969C60.2854 145.019 62.4314 146.155 64.9561 146.155C67.1021 146.155 68.996 145.271 70.3844 143.881C70.5111 143.881 70.6365 143.881 70.7632 143.881C71.0153 143.881 71.2687 143.881 71.6474 143.881C72.6571 143.881 73.6667 144.134 74.5497 144.64C76.3182 145.524 77.58 147.041 78.4642 148.809C78.7163 149.061 78.7163 149.314 78.8417 149.567Z" fill="#A5E4CF"/>
<path d="M69.124 140.722V143.375L61.1709 143.628L61.5497 141.859C61.6764 141.859 61.6764 141.985 61.8018 141.985C62.0539 142.112 62.3072 142.364 62.5593 142.491C62.686 142.617 62.8114 142.743 63.0648 142.869C63.0648 142.869 63.1902 142.869 63.1902 142.996V141.228L63.0648 141.101C64.4532 141.859 66.3459 142.364 69.124 140.722Z" fill="#A5E4CF"/>
<path d="M74.2962 129.73C72.7811 130.235 71.0139 130.487 69.3734 130.361C66.722 130.109 64.1972 129.098 62.1779 127.329C61.547 129.224 59.9052 130.614 58.0126 131.498C57.7592 131.625 57.5071 131.75 57.255 131.75C57.255 131.75 57.255 131.75 57.255 131.625C57.1283 130.235 57.1283 128.844 57.6338 127.455C58.0126 126.065 58.8955 124.929 59.9052 123.918L60.0318 123.791C60.1585 123.664 60.4106 123.538 60.5373 123.286C61.4203 122.528 62.5566 122.023 63.693 121.769C64.3238 121.642 64.9547 121.517 65.5869 121.517C68.8679 121.517 71.7715 123.286 73.1599 126.065C73.6654 127.076 73.9175 128.087 74.0442 128.844C74.2963 129.35 74.2962 129.603 74.2962 129.73Z" fill="#669896"/>
<path d="M64.2009 148.428C63.4433 149.313 62.1803 149.313 61.044 149.313C62.1803 148.175 61.5494 144.511 57.5095 144.89C51.9558 143.879 52.46 138.067 58.015 136.299L58.898 136.045L59.0246 136.172C59.4034 137.31 60.0343 138.321 60.6652 139.078C58.3938 140.973 61.5494 141.479 63.0645 142.995C64.3263 143.753 65.4626 146.912 64.2009 148.428Z" fill="#669896"/>
<path d="M85.4065 134.532C85.4065 140.47 82.8817 145.777 78.8418 149.567C77.7068 150.578 76.5704 151.462 75.182 152.221C72.1518 153.989 68.6174 155 64.8308 155C61.0431 155 57.5086 153.989 54.4797 152.221C53.9742 151.967 53.5954 151.715 53.09 151.337C47.7883 147.672 44.2539 141.481 44.2539 134.532C44.2539 123.16 53.4688 114.063 64.7042 114.063C76.1917 113.937 85.4065 123.16 85.4065 134.532Z" stroke="white" stroke-width="2.36139" stroke-miterlimit="10" stroke-linecap="round" stroke-linejoin="round"/>
<path d="M142.212 84.243C142.212 89.9284 139.941 94.983 136.407 98.7733C136.153 99.1521 135.775 99.4055 135.396 99.6576C131.609 103.196 126.56 105.343 121.006 105.343C116.587 105.343 112.422 103.953 109.013 101.553C108.003 100.922 107.119 100.036 106.236 99.2788C102.323 95.4885 99.9248 90.1818 99.9248 84.243C99.9248 72.6188 109.392 63.1431 121.006 63.1431C132.746 63.1431 142.212 72.6188 142.212 84.243Z" fill="#FBFBFB"/>
<path d="M142.212 84.2433C142.212 90.4342 139.562 95.8675 135.396 99.7845C131.609 103.321 126.56 105.47 121.006 105.47C116.587 105.47 112.422 104.08 109.013 101.68C103.459 97.8894 99.9248 91.5718 99.9248 84.37C99.9248 72.7457 109.392 63.27 121.006 63.27C132.619 63.27 142.212 72.619 142.212 84.2433Z" fill="#D2F2E7"/>
<path d="M136.405 98.774C136.152 99.1528 135.773 99.4062 135.394 99.6583C131.608 103.196 126.558 105.344 121.004 105.344C116.586 105.344 112.42 103.954 109.011 101.553C108.002 100.923 107.117 100.037 106.234 99.2795C106.74 98.6474 107.496 98.2686 109.138 97.6365L109.769 97.3844C111.032 96.8789 112.799 96.2468 115.07 95.2359C115.449 95.1104 115.701 94.8571 115.955 94.605C116.08 94.4783 116.207 94.3516 116.207 94.0995C116.333 93.8462 116.459 93.4674 116.459 93.2153V88.9195C116.333 88.7929 116.333 88.7928 116.207 88.6662C115.828 88.1607 115.576 87.5286 115.576 86.771L115.324 86.6443C114.187 86.8977 114.313 85.7601 114.061 83.4862C113.934 82.6019 114.061 82.3486 114.566 82.2219L114.945 81.7177C114.187 79.948 113.809 78.3062 113.809 77.0419C113.809 74.8947 114.692 73.505 115.955 72.8729C115.197 71.3565 115.197 70.8511 115.197 70.8511C115.197 70.8511 119.616 71.6099 121.13 71.3565C123.024 70.9778 126.054 71.4832 127.189 74.0105C129.083 74.768 129.714 75.9056 129.967 77.1686C130.219 79.1904 129.083 81.3377 128.831 82.2219V82.3486C129.083 82.4753 129.209 82.7274 129.083 83.6129C128.831 85.7601 128.831 87.0231 127.821 86.771L126.81 88.5395C126.81 88.7929 126.81 88.7929 126.685 88.9195C126.685 89.2983 126.685 89.9292 126.685 93.3407C126.685 93.7208 126.81 94.225 127.063 94.4783C127.189 94.605 127.189 94.7304 127.316 94.7304C127.568 94.9837 127.821 95.2359 128.073 95.2359C130.598 96.2468 132.365 97.0055 133.753 97.511C135.015 98.0165 135.899 98.3953 136.405 98.774Z" fill="white"/>
<path d="M136.405 98.774C136.152 99.1528 135.773 99.4062 135.394 99.6583C131.608 103.196 126.558 105.344 121.004 105.344C116.586 105.344 112.42 103.954 109.011 101.553C108.002 100.923 107.117 100.037 106.234 99.2795C106.74 98.6474 107.496 98.2686 109.138 97.6364L109.769 97.3844C111.032 96.8789 112.799 96.2468 115.07 95.2358C115.449 95.1104 115.701 94.8571 115.955 94.605C117.216 96.3734 119.237 97.511 121.635 97.511C123.908 97.511 125.927 96.3734 127.189 94.7304C127.442 94.9837 127.694 95.2358 127.946 95.2358C130.471 96.2468 132.238 97.0055 133.627 97.511C135.015 98.0164 135.899 98.3952 136.405 98.774Z" fill="#A5E4CF"/>
<path d="M128.705 82.0965C128.831 81.5911 128.578 80.8323 128.326 80.4535C128.326 80.3268 128.199 80.3268 128.199 80.2014C127.316 78.4317 125.422 77.8008 123.655 77.6741C118.984 77.4207 118.606 78.3062 117.217 77.0419C117.723 77.6741 117.723 78.8117 116.965 80.0747C116.46 80.9589 115.577 81.4644 114.692 81.7177C112.546 76.9153 113.683 73.8838 115.702 72.8729C114.944 71.3565 114.944 70.8511 114.944 70.8511C114.944 70.8511 119.363 71.6099 120.878 71.3565C122.772 70.9778 125.801 71.4832 126.937 74.0105C128.831 74.768 129.462 75.9056 129.714 77.1686C130.093 79.0638 128.957 81.2123 128.705 82.0965Z" fill="#669896"/>
<path d="M116.587 93.2148V88.919C116.46 88.7924 116.46 88.7923 116.335 88.6657V88.4136C116.587 88.7924 116.839 89.1711 117.218 89.4232L120.627 91.8238C121.384 92.456 122.52 92.456 123.277 91.8238L126.433 89.0444C126.559 88.919 126.686 88.919 126.812 88.7924C126.812 89.1711 126.812 89.8033 126.812 93.2148C126.812 93.4669 126.812 93.5935 126.938 93.8456H116.587C116.46 93.5935 116.587 93.4669 116.587 93.2148Z" fill="#A5E4CF"/>
<path d="M142.212 84.2433C142.212 90.4342 139.562 95.8675 135.396 99.7845C131.609 103.321 126.56 105.47 121.006 105.47C116.587 105.47 112.422 104.08 109.013 101.68C103.459 97.8894 99.9248 91.5718 99.9248 84.37C99.9248 72.7457 109.392 63.27 121.006 63.27C132.619 63.27 142.212 72.619 142.212 84.2433Z" stroke="white" stroke-width="2.38581" stroke-miterlimit="10" stroke-linecap="round" stroke-linejoin="round"/>
<path d="M0.703125 98.9013C0.703125 102.944 3.98547 106.228 8.02534 106.228H72.9092C73.5401 106.228 74.1722 106.482 74.551 106.861L83.6392 115.958C83.8913 116.336 84.3967 116.463 84.9022 116.211C85.281 116.084 85.6585 115.579 85.6585 115.2V73.1255C85.6585 69.0831 82.3774 65.7983 78.3376 65.7983H8.02534C3.98547 65.7983 0.703125 69.0831 0.703125 73.1255V98.9013Z" fill="#77D7B6"/>
<g filter="url(#filter0_d_650_18881)">
<path d="M54.7295 40.4012C54.7295 43.3072 57.1276 45.7078 60.0311 45.7078H76.1894C76.6949 45.7078 77.0724 45.8345 77.4511 46.2133L84.1425 52.9096C84.3946 53.163 84.7734 53.2897 85.0255 53.163C85.2788 53.0364 85.5309 52.7842 85.5309 52.4042V21.4497C85.5309 18.5437 83.1328 16.1431 80.2293 16.1431H60.0311C57.1276 16.1431 54.7295 18.5437 54.7295 21.4497V40.4012Z" fill="white"/>
</g>
<path d="M176.296 49.2446C176.296 52.9082 173.393 55.8143 169.732 55.8143H111.411C110.907 55.8143 110.276 56.0676 109.897 56.4464L101.692 64.6592C101.439 64.9113 100.934 65.0379 100.556 64.9113C100.177 64.7858 99.9248 64.407 99.9248 64.027V26.1229C99.9248 22.4592 102.827 19.5532 106.488 19.5532H169.606C173.266 19.5532 176.17 22.4592 176.17 26.1229V49.2446H176.296Z" fill="#77D7B6"/>
<path opacity="0.7" d="M163.293 34.3359H113.178C112.674 34.3359 112.295 33.9571 112.295 33.4516V30.4188C112.295 29.9134 112.674 29.5347 113.178 29.5347H163.293C163.799 29.5347 164.178 29.9134 164.178 30.4188V33.4516C164.178 33.9571 163.799 34.3359 163.293 34.3359Z" fill="#D2F2E7"/>
<path opacity="0.7" d="M69.9565 82.2537H14.227C13.6663 82.2537 13.2451 81.8579 13.2451 81.3298V78.1607C13.2451 77.6326 13.6663 77.2368 14.227 77.2368H69.9565C70.5185 77.2368 70.9398 77.6326 70.9398 78.1607V81.3298C70.9398 81.8579 70.5185 82.2537 69.9565 82.2537Z" fill="#D2F2E7"/>
<path opacity="0.7" d="M163.293 46.9189H113.178C112.674 46.9189 112.295 46.5401 112.295 46.0346V43.0019C112.295 42.4964 112.674 42.1177 113.178 42.1177H163.293C163.799 42.1177 164.178 42.4964 164.178 43.0019V46.0346C164.178 46.5401 163.799 46.9189 163.293 46.9189Z" fill="#D2F2E7"/>
<path opacity="0.7" d="M69.9565 94.7957H14.227C13.6663 94.7957 13.2451 94.3999 13.2451 93.8717V90.7027C13.2451 90.1745 13.6663 89.7788 14.227 89.7788H69.9565C70.5185 89.7788 70.9398 90.1745 70.9398 90.7027V93.8717C70.9398 94.3999 70.5185 94.7957 69.9565 94.7957Z" fill="#D2F2E7"/>
<path d="M77.2014 27.6413C75.6863 25.1141 72.0264 24.7353 70.1325 27.1359C68.2386 24.7353 64.5776 25.1141 63.0637 27.6413C61.8007 29.7898 62.6849 31.8105 64.3255 33.8323C65.966 35.8541 68.3653 37.6226 69.5017 38.2547C69.7538 38.3814 69.8804 38.3814 70.1325 38.3814C70.3846 38.3814 70.6368 38.3814 70.7634 38.2547C71.8998 37.4971 74.2978 35.8541 75.9396 33.8323C77.5802 31.8105 78.5898 29.7898 77.2014 27.6413Z" fill="#A5E4CF"/>
<defs>
<filter id="filter0_d_650_18881" x="23.1179" y="0.337265" width="94.025" height="100.293" filterUnits="userSpaceOnUse" color-interpolation-filters="sRGB">
<feFlood flood-opacity="0" result="BackgroundImageFix"/>
<feColorMatrix in="SourceAlpha" type="matrix" values="0 0 0 0 0 0 0 0 0 0 0 0 0 0 0 0 0 0 127 0" result="hardAlpha"/>
<feOffset dy="15.8058"/>
<feGaussianBlur stdDeviation="15.8058"/>
<feColorMatrix type="matrix" values="0 0 0 0 0.397708 0 0 0 0 0.47749 0 0 0 0 0.575 0 0 0 0.18 0"/>
<feBlend mode="normal" in2="BackgroundImageFix" result="effect1_dropShadow_650_18881"/>
<feBlend mode="normal" in="SourceGraphic" in2="effect1_dropShadow_650_18881" result="shape"/>
</filter>
</defs>
</svg>
