<svg width="168" height="24" viewBox="0 0 168 24" fill="none" xmlns="http://www.w3.org/2000/svg">
<path d="M14.8399 8.06646V7.03119C14.8399 6.94146 14.7367 6.8919 14.6671 6.94681L8.6296 11.6624C8.5783 11.7023 8.53679 11.7534 8.50824 11.8118C8.47969 11.8702 8.46484 11.9343 8.46484 11.9993C8.46484 12.0643 8.47969 12.1284 8.50824 12.1868C8.53679 12.2451 8.5783 12.2962 8.6296 12.3361L14.6671 17.0517C14.7381 17.1066 14.8399 17.0571 14.8399 16.9674V15.9321C14.8399 15.8665 14.8091 15.8035 14.7582 15.7633L9.93674 11.9999L14.7582 8.23521C14.8091 8.19503 14.8399 8.13208 14.8399 8.06646Z" fill="#D9D9D9"/>
<path d="M24 2C24 0.89543 24.8954 0 26 0H46C47.1046 0 48 0.895431 48 2V22C48 23.1046 47.1046 24 46 24H26C24.8954 24 24 23.1046 24 22V2Z" fill="white"/>
<path d="M33.8311 7.096L34.0831 7.936L36.2811 7.278V16H37.2611V6.2H36.4211L33.8311 7.096Z" fill="#1DBC86"/>
<path d="M26 1H46V-1H26V1ZM47 2V22H49V2H47ZM46 23H26V25H46V23ZM25 22V2H23V22H25ZM26 23C25.4477 23 25 22.5523 25 22H23C23 23.6569 24.3431 25 26 25V23ZM47 22C47 22.5523 46.5523 23 46 23V25C47.6569 25 49 23.6569 49 22H47ZM46 1C46.5523 1 47 1.44772 47 2H49C49 0.343146 47.6569 -1 46 -1V1ZM26 -1C24.3431 -1 23 0.343145 23 2H25C25 1.44772 25.4477 1 26 1V-1Z" fill="#1DBC86"/>
<path d="M63.1123 16V15.048H58.2823L61.0823 12.262C62.2443 11.1 62.9023 10.106 62.9023 8.972C62.9023 8.062 62.6083 7.348 62.0063 6.83C61.4183 6.298 60.7323 6.032 59.9483 6.032C58.6603 6.032 57.5403 6.662 56.9243 7.88L57.7503 8.37C58.2123 7.446 58.9403 6.984 59.9483 6.984C61.0263 6.984 61.9223 7.726 61.9223 8.972C61.9223 9.686 61.4183 10.554 60.4103 11.562L56.8823 15.118V16H63.1123Z" fill="black" fill-opacity="0.85"/>
<path d="M86.7281 7.124V6.2H80.9881V7.124H85.5941L83.1581 10.456L83.5781 11.1H83.8441L83.8581 11.086V11.1C85.2021 11.1 86.1681 11.856 86.1681 13.158C86.1681 14.46 85.2021 15.216 83.8581 15.216C82.6961 15.216 81.8421 14.712 81.5201 13.746L80.7081 14.222C81.1701 15.468 82.4021 16.168 83.8581 16.168C84.7681 16.168 85.5521 15.902 86.1821 15.37C86.8261 14.824 87.1481 14.096 87.1481 13.158C87.1481 12.332 86.8961 11.674 86.3781 11.184C85.8741 10.68 85.2301 10.372 84.4461 10.274L86.7281 7.124Z" fill="black" fill-opacity="0.85"/>
<path d="M110.449 13.116V10.12H109.469V13.116H105.367L109.007 6.2H107.929L104.289 13.116V14.04H109.469V16H110.449V14.04H111.709V13.116H110.449Z" fill="black" fill-opacity="0.85"/>
<path d="M130.278 10.148L130.488 7.124H134.87V6.2H129.62L129.27 11.1H131.93C133.274 11.1 134.24 11.856 134.24 13.158C134.24 14.46 133.274 15.216 131.93 15.216C130.768 15.216 129.886 14.656 129.606 13.606L128.78 14.082C129.186 15.426 130.46 16.168 131.93 16.168C132.84 16.168 133.624 15.902 134.254 15.37C134.898 14.824 135.22 14.096 135.22 13.158C135.22 12.22 134.898 11.492 134.254 10.96C133.624 10.414 132.84 10.148 131.93 10.148H130.278Z" fill="black" fill-opacity="0.85"/>
<path d="M159.398 11.6628L153.36 6.94719C153.344 6.93477 153.326 6.92705 153.306 6.92492C153.286 6.92279 153.265 6.92633 153.247 6.93514C153.229 6.94395 153.214 6.95768 153.204 6.97473C153.193 6.99179 153.187 7.01149 153.188 7.03156V8.06683C153.188 8.13246 153.218 8.1954 153.269 8.23558L158.091 12.0003L153.269 15.765C153.217 15.8052 153.188 15.8682 153.188 15.9338V16.9691C153.188 17.0588 153.291 17.1083 153.36 17.0534L159.398 12.3378C159.449 12.2978 159.491 12.2466 159.519 12.1881C159.548 12.1296 159.563 12.0654 159.563 12.0003C159.563 11.9352 159.548 11.871 159.519 11.8125C159.491 11.754 159.449 11.7028 159.398 11.6628Z" fill="black" fill-opacity="0.85"/>
</svg>
