<svg width="26" height="26" viewBox="0 0 26 26" fill="none" xmlns="http://www.w3.org/2000/svg">
<rect width="26" height="26" rx="13" fill="#E8F8F3"/>
<g opacity="0.8">
<path d="M13.0004 16.75C15.7469 16.75 18.1491 17.9312 19.4556 19.6937L18.0741 20.347C17.0106 19.087 15.1356 18.25 13.0004 18.25C10.8651 18.25 8.99015 19.087 7.92665 20.347L6.5459 19.693C7.8524 17.9305 10.2539 16.75 13.0004 16.75ZM13.0004 5.5C13.995 5.5 14.9488 5.89509 15.652 6.59835C16.3553 7.30161 16.7504 8.25544 16.7504 9.25V11.5C16.7503 12.4663 16.3772 13.3954 15.7089 14.0933C15.0406 14.7913 14.1286 15.2043 13.1631 15.2463L13.0004 15.25C12.0058 15.25 11.052 14.8549 10.3487 14.1517C9.64549 13.4484 9.2504 12.4946 9.2504 11.5V9.25C9.25045 8.28365 9.62355 7.35463 10.2919 6.65667C10.9602 5.95871 11.8722 5.54569 12.8376 5.50375L13.0004 5.5ZM13.0004 7C12.4265 6.99997 11.8743 7.21924 11.4567 7.61296C11.0391 8.00668 10.7878 8.54508 10.7541 9.118L10.7504 9.25V11.5C10.7498 12.0857 10.9777 12.6485 11.3855 13.0689C11.7933 13.4892 12.3489 13.734 12.9344 13.7512C13.5198 13.7684 14.0889 13.5566 14.5206 13.1609C14.9524 12.7652 15.2129 12.2167 15.2466 11.632L15.2504 11.5V9.25C15.2504 8.65326 15.0133 8.08097 14.5914 7.65901C14.1694 7.23705 13.5971 7 13.0004 7Z" fill="#101010"/>
</g>
</svg>
