<svg width="121" height="38" viewBox="0 0 121 38" fill="none" xmlns="http://www.w3.org/2000/svg">
<rect width="121" height="38" rx="8" fill="white"/>
<path opacity="0.6" d="M8.80194 13.6V14.656H11.2739V22H12.3779V14.656H14.8619V13.6H8.80194ZM20.5286 19.48C20.5526 19.324 20.5646 19.168 20.5646 19.012C20.5646 18.136 20.2886 17.392 19.7246 16.78C19.1726 16.156 18.4526 15.844 17.5766 15.844C16.6526 15.844 15.8966 16.144 15.3086 16.744C14.7206 17.344 14.4326 18.1 14.4326 19C14.4326 19.912 14.7326 20.668 15.3206 21.268C15.9206 21.856 16.7006 22.156 17.6486 22.156C18.8246 22.156 19.7006 21.7 20.2886 20.8L19.4006 20.296C19.0406 20.884 18.4646 21.172 17.6726 21.172C16.5326 21.172 15.7046 20.548 15.5006 19.48H20.5286ZM17.5766 16.828C18.5366 16.828 19.3286 17.428 19.5086 18.568H15.5006C15.6806 17.512 16.4606 16.828 17.5766 16.828ZM22.4303 17.62C22.4303 17.104 22.9103 16.816 23.4983 16.816C24.1343 16.816 24.5663 17.068 24.7823 17.584L25.6583 17.092C25.2743 16.312 24.4703 15.844 23.4983 15.844C22.8863 15.844 22.3823 16.012 21.9743 16.348C21.5783 16.684 21.3743 17.116 21.3743 17.632C21.3743 18.904 22.5983 19.216 23.5463 19.468C24.2063 19.624 24.7343 19.888 24.7343 20.356C24.7343 20.92 24.2303 21.172 23.5463 21.172C22.8143 21.172 22.2503 20.812 22.0583 20.236L21.1583 20.752C21.5063 21.604 22.3823 22.156 23.5463 22.156C24.2063 22.156 24.7343 21.988 25.1543 21.664C25.5743 21.34 25.7903 20.896 25.7903 20.356C25.8023 19.072 24.5543 18.724 23.6183 18.52C22.9583 18.34 22.4303 18.088 22.4303 17.62ZM30.056 16H28.46V14.32L27.416 14.632V16H26.228V17.008H27.416V20.26C27.416 21.748 28.232 22.24 30.056 22V21.064C28.988 21.112 28.46 21.184 28.46 20.26V17.008H30.056V16ZM41.0352 13.6L38.3712 18.04L35.6952 13.6H34.4352V22H35.5512V15.448L38.2992 20.008H38.4432L41.1912 15.436V22H42.2952V13.6H41.0352ZM49.0474 21.244C49.6594 20.632 49.9714 19.888 49.9714 19C49.9714 18.112 49.6594 17.368 49.0474 16.756C48.4354 16.144 47.6794 15.844 46.8034 15.844C45.9274 15.844 45.1714 16.144 44.5594 16.756C43.9474 17.368 43.6474 18.112 43.6474 19C43.6474 19.888 43.9474 20.632 44.5594 21.244C45.1714 21.856 45.9274 22.156 46.8034 22.156C47.6794 22.156 48.4354 21.856 49.0474 21.244ZM46.8034 21.136C46.2154 21.136 45.7114 20.932 45.3034 20.524C44.8954 20.116 44.6914 19.612 44.6914 19C44.6914 18.388 44.8954 17.884 45.3034 17.476C45.7114 17.068 46.2154 16.864 46.8034 16.864C47.4034 16.864 47.9074 17.068 48.3154 17.476C48.7234 17.884 48.9274 18.388 48.9274 19C48.9274 19.612 48.7234 20.116 48.3154 20.524C47.9074 20.932 47.4034 21.136 46.8034 21.136ZM56.1702 17.032C55.6542 16.24 54.8982 15.844 53.9022 15.844C53.0622 15.844 52.3422 16.156 51.7542 16.768C51.1662 17.38 50.8662 18.124 50.8662 19C50.8662 19.876 51.1662 20.632 51.7542 21.244C52.3422 21.856 53.0622 22.156 53.9022 22.156C54.8982 22.156 55.6542 21.76 56.1702 20.968V22H57.2142V13.6H56.1702V17.032ZM54.0342 21.148C53.4342 21.148 52.9302 20.944 52.5222 20.536C52.1142 20.116 51.9102 19.612 51.9102 19C51.9102 18.388 52.1142 17.884 52.5222 17.476C52.9302 17.056 53.4342 16.852 54.0342 16.852C54.6462 16.852 55.1502 17.056 55.5582 17.476C55.9662 17.884 56.1702 18.388 56.1702 19C56.1702 19.612 55.9662 20.116 55.5582 20.536C55.1502 20.944 54.6462 21.148 54.0342 21.148ZM64.5559 19.48C64.5799 19.324 64.5919 19.168 64.5919 19.012C64.5919 18.136 64.3159 17.392 63.7519 16.78C63.1999 16.156 62.4799 15.844 61.6039 15.844C60.6799 15.844 59.9239 16.144 59.3359 16.744C58.7479 17.344 58.4599 18.1 58.4599 19C58.4599 19.912 58.7599 20.668 59.3479 21.268C59.9479 21.856 60.7279 22.156 61.6759 22.156C62.8519 22.156 63.7279 21.7 64.3159 20.8L63.4279 20.296C63.0679 20.884 62.4919 21.172 61.6999 21.172C60.5599 21.172 59.7319 20.548 59.5279 19.48H64.5559ZM61.6039 16.828C62.5639 16.828 63.3559 17.428 63.5359 18.568H59.5279C59.7079 17.512 60.4879 16.828 61.6039 16.828Z" fill="#101010"/>
<rect x="73" y="8" width="40" height="22" rx="11" fill="#FDF5F2"/>
<ellipse cx="84.2823" cy="19" rx="8.20513" ry="8" fill="#E99982"/>
</svg>
